<?xml version="1.0" standalone="no"?>
<!DOCTYPE svg PUBLIC "-//W3C//DTD SVG 20010904//EN"
 "http://www.w3.org/TR/2001/REC-SVG-20010904/DTD/svg10.dtd">
<svg version="1.0" xmlns="http://www.w3.org/2000/svg"
 width="512.000000pt" height="512.000000pt" viewBox="0 0 512.000000 512.000000"
 preserveAspectRatio="xMidYMid meet">

<g transform="translate(0.000000,512.000000) scale(0.100000,-0.100000)"
fill="#000000" stroke="none">
<path d="M1255 5109 c-31 -17 -1224 -1211 -1241 -1241 -12 -23 -14 -292 -14
-1900 0 -1840 0 -1874 20 -1905 41 -68 -137 -63 2135 -63 2269 0 2096 -5 2129
64 14 30 16 95 16 580 l0 546 -120 -60 -120 -60 0 -415 0 -415 -1910 0 -1910
0 0 1730 0 1730 540 0 c593 0 594 0 624 59 13 25 16 75 16 304 0 151 3 396 7
545 l6 272 1319 0 1318 0 0 -1285 0 -1285 115 57 115 58 0 1298 c0 1182 -1
1302 -16 1333 -33 69 79 64 -1541 64 -1036 -1 -1474 -4 -1488 -11z m-75 -789
l0 -380 -382 0 -383 0 380 380 c209 209 381 380 382 380 2 0 3 -171 3 -380z"/>
<path d="M2320 4140 l0 -80 680 0 680 0 0 80 0 80 -680 0 -680 0 0 -80z"/>
<path d="M2320 3760 l0 -80 680 0 680 0 0 80 0 80 -680 0 -680 0 0 -80z"/>
<path d="M2320 3380 l0 -80 680 0 680 0 0 80 0 80 -680 0 -680 0 0 -80z"/>
<path d="M1108 3381 c-121 -31 -219 -116 -275 -237 -39 -85 -45 -219 -13 -307
111 -304 488 -385 709 -152 61 64 88 118 107 208 45 216 -93 435 -311 492 -75
19 -133 18 -217 -4z"/>
<path d="M2320 3000 l0 -80 680 0 680 0 0 80 0 80 -680 0 -680 0 0 -80z"/>
<path d="M2320 2620 l0 -80 680 0 680 0 0 80 0 80 -680 0 -680 0 0 -80z"/>
<path d="M1125 2449 c-193 -29 -337 -115 -398 -235 -16 -33 -36 -115 -61 -249
-20 -110 -39 -210 -41 -222 l-5 -23 600 0 c330 0 600 2 600 4 0 2 -18 102 -41
222 -44 242 -61 287 -129 354 -112 112 -343 177 -525 149z"/>
<path d="M4675 2377 c-22 -8 -86 -37 -142 -65 l-103 -52 37 -74 37 -74 118 59
c65 32 129 59 142 59 38 0 79 -41 79 -78 0 -46 -25 -68 -148 -129 -60 -31
-111 -57 -113 -58 -4 -4 157 -325 163 -325 3 0 55 25 116 55 187 94 254 185
254 345 0 71 -5 94 -26 140 -60 126 -168 200 -302 206 -43 2 -88 -2 -112 -9z"/>
<path d="M2320 2240 l0 -80 680 0 680 0 0 80 0 80 -680 0 -680 0 0 -80z"/>
<path d="M3499 1795 l-765 -383 -209 -279 c-115 -153 -210 -287 -213 -299 -2
-11 4 -28 13 -37 15 -15 54 -17 366 -17 l350 0 779 393 778 392 -80 160 c-44
88 -82 161 -83 163 -2 2 -345 -168 -764 -377 -418 -210 -769 -381 -779 -381
-51 0 -91 64 -71 112 10 26 104 75 773 410 419 209 762 382 764 383 8 7 -70
145 -81 144 -6 0 -357 -173 -778 -384z"/>
<path d="M2320 1860 l0 -80 353 1 352 0 155 79 155 79 -507 0 -508 1 0 -80z"/>
<path d="M620 1340 l0 -80 600 0 600 0 0 80 0 80 -600 0 -600 0 0 -80z"/>
<path d="M620 960 l0 -80 600 0 600 0 0 80 0 80 -600 0 -600 0 0 -80z"/>
<path d="M620 580 l0 -80 600 0 600 0 0 80 0 80 -600 0 -600 0 0 -80z"/>
</g>
</svg>
